<svg height="300" width="200" xmlns:svg="http://www.w3.org/2000/svg" xmlns="http://www.w3.org/2000/svg">

 <!-- штаны -->
  <rect x="51" y="266" width="99" height="22" fill="#21857f"/>

<!-- Тело -->
<path d="M 50 200
         Q 30 220 28 247
         L 44 265 
         Q 94 279 152 270
         L 171 250
         Q 170 225 150 200"
         fill="#ff6419"/>    
<line x1="102" y1="218" x2="102" y2="272" stroke="#6e3520" stroke-linecap="round" stroke-width="2"/>         

<!-- Воротник -->
  <ellipse cx="128" cy="210" rx="10" ry="29" fill="#4f3028" transform="rotate(65, 128, 210)"/> 
  <ellipse cx="128" cy="209" rx="10" ry="29" fill="#00ad50" transform="rotate(65, 128, 209)"/>
  <ellipse cx="78" cy="210" rx="10" ry="30" fill="#4f3028" transform="rotate(-65, 78, 210)"/>  
  <ellipse cx="78" cy="209" rx="10" ry="30" fill="#00ad50" transform="rotate(-65, 78, 209)"/>  

<!-- Левый карман -->
  <rect x="67" y="231" width="20" height="25" stroke="#653122" fill-opacity="0"/>
  <path d="M 67 231 
           L 77 242 87 231 Z" 
           fill="#4c4a4f"
           stroke="#653122"
           fill-opacity="0"/>
<!-- Правый карман -->         
  <rect x="115" y="229" width="20" height="25" stroke="#653122" fill-opacity="0"/>
  <path d="M 115 229 
           L 125 240 135 229 Z"
           fill="#4c4a4f"
           stroke="#653122"
           fill-opacity="0"/>  

<!-- Голова -->
  <circle cx="100" cy="140" r="78" fill="#ffebc2"/>

<!-- Шапка-ушанка -->
<rect x="25" y="57" width="153" height="60" rx="14" ry="14" fill="#4fc53d"/>
<rect x="25" y="80" width="153" height="40" fill="#4fc43e"/>
<ellipse cx="22" cy="144" rx="14" ry="38" fill="#499342" transform="rotate(21, 23, 145)"/>   
<ellipse cx="23" cy="145" rx="14" ry="38" fill="#4fc43e" transform="rotate(21, 23, 145)"/>
<ellipse cx="179" cy="144" rx="14" ry="38" fill="#499342" transform="rotate(-21, 178, 145)"/>       
<ellipse cx="178" cy="145" rx="14" ry="38" fill="#4fc43e" transform="rotate(-21, 178, 145)"/>    
<path d="M 37 84
         L 166 84 166 125
         Q 105 112 37 125
         L 37 84"
         fill="#00ad50"/>

 <!-- Брови -->
  <line x1="78" y1="110" x2="58" y2="123" stroke-width="2" stroke="#3e3d43" stroke-linecap="round"/>
  <line x1="142" y1="123" x2="121" y2="112" stroke-width="2" stroke="#3e3d43" stroke-linecap="round"/>  

<!-- левый глаз -->
  <ellipse cx="80" cy="145" rx="21" ry="25" fill="#f1d9b7" transform="rotate(30, 80, 145)"/>
  <ellipse cx="79" cy="146" rx="21" ry="25" fill="#fff" transform="rotate(30, 79, 146)"/>
  <circle cx="87" cy="147" r="3"/>
<!-- Правый глаз -->
  <ellipse cx="125" cy="144" rx="21" ry="25" fill="#f1d9b7" transform="rotate(-30, 126, 150) "/>
  <ellipse cx="126" cy="145" rx="21" ry="25" fill="#fff" transform="rotate(-30, 126, 150) "/>
  <circle cx="112" cy="147" r="3"/>

<!-- Рот -->
  <path d="M 81 188
      L 128 188
      Q 130 191 104 207
      Q 98 205 81 188"
        stroke="#3e3d43" fill="#000"/> 
<!-- Зубы -->
 <polygon points="84 188
                  86 193
                  93 194
                  94 188"
                  fill="#fff"/>
 <polygon points="95 188
                  94 194
                  104 194
                  104 188"
                  fill="#fff"/>
 <polygon points="105 188
                  105 195
                  114 195
                  116 188"
                  fill="#fff"/>
 <polygon points="117 188
                  115 195
                  120 195
                  126 188"
                  fill="#fff"/>      

<!-- Левая рука -->
  <line x1="46" y1="249" x2="53" y2="230" stroke-width="1" stroke="#000"/>
  <circle cx="37" cy="255" r="13" fill="#4dc33e"/>
  <circle cx="46" cy="252" r="5" fill="#4dc33e" stroke="#4f9f43" stroke-width="1"/>   
<!-- Правая рука -->
  <line x1="150" y1="254" x2="147" y2="232" stroke-width="1" stroke="#000"/>  
  <circle cx="161" cy="259" r="13" fill="#4dc33e"/>
  <circle cx="152" cy="256" r="5" fill="#4dc33e" stroke="#4f9f43" stroke-width="1"/>          
  
  <!-- ноги -->
  <path d="M 44 288
        L 159 288
        Q 80 278 44 288"
        fill="#4c4a4f"/>                                                                                                                                          
</svg>